<svg width="423" height="475" viewBox="0 0 423 475" fill="none" xmlns="http://www.w3.org/2000/svg">
<path d="M415.283 156.05C390.311 69.1966 307.236 -4.32054 202.537 0.197812C110.515 4.16994 32.3554 69.7428 7.38325 156.435C-14.6241 232.827 15.5854 317.417 58.1634 356.846C56.9923 350.597 55.3031 344.003 54.6022 337.3C53.27 324.509 49.5215 312.711 42.3207 302.036C40.9189 299.956 39.7652 297.705 38.4983 295.529C26.8437 275.476 17.4357 254.659 14.9454 231.162C12.8122 211.026 11.8413 190.952 15.8074 170.96C20.8445 145.589 32.9692 123.64 49.835 104.509C85.8304 63.6863 131.739 41.9641 185.227 35.4269C191.318 34.6841 197.426 33.9456 203.442 32.7701C207.191 32.036 209.024 29.1082 209.154 25.2934C209.285 21.5179 207.247 19.001 203.891 17.8561C201.444 17.0214 198.767 16.5451 196.176 16.4927C181.117 16.1868 166.38 18.446 152.07 23.0561C121.952 32.7526 96.3225 49.8166 73.7753 71.8141C71.0761 74.449 68.4639 77.1976 65.5471 79.5617C64.6589 80.2783 62.8827 79.8894 61.5156 80.0118C61.8552 78.8276 61.8552 77.3244 62.5997 76.5116C65.4861 73.3653 68.5684 70.3895 71.6551 67.4312C104.986 35.5143 143.224 14.0675 190.281 11.5767C209.981 10.5323 229.694 10.3707 249.272 13.1848C278.42 17.371 304.336 29.4054 327.289 47.5837C338.691 56.616 349.122 66.8806 359.897 76.6951C360.676 77.403 360.641 79.0111 360.985 80.204C359.64 80.1035 357.92 80.4968 357.019 79.8108C354.538 77.9186 352.378 75.5896 350.119 73.4003C338.081 61.7374 325.451 50.8129 311.241 41.8593C286.064 25.997 258.963 16.3922 228.898 16.7112C226.059 16.7418 223.064 17.1307 220.434 18.127C214.631 20.3206 213.725 27.8716 218.776 31.5029C220.43 32.6915 222.615 33.3819 224.657 33.7402C228.854 34.4831 233.112 34.8895 237.352 35.3658C279.164 40.0414 317.136 54.5884 349.614 81.5936C383.402 109.691 406.415 144.352 409.001 189.846C410.289 212.569 409.488 235.239 402.579 257.184C397.364 273.746 388.796 288.743 379.758 303.443C375.452 310.443 371.342 317.513 369.81 325.707C367.803 336.435 365.992 347.197 364.037 358.279C384.603 336.627 400.294 311.977 410.05 283.836C424.6 241.864 427.656 199.084 415.283 156.05Z" fill="white"/>
<path d="M177.681 407.759C182.892 410.359 187.611 413.96 192.64 417.163C192.357 416.293 192.187 415.061 191.604 414.074C184.703 402.31 175.822 392.618 163.105 387.012C153.235 382.659 143.418 382.62 133.64 387.348C130.819 388.711 128.024 390.21 125.063 391.185C118.202 393.435 112.826 391.193 108.929 385.111C108.289 384.114 106.678 383.131 105.542 383.162C88.2235 383.621 72.7813 368.187 73.5693 350.834C73.6869 348.278 74.5228 345.638 75.5546 343.27C76.4514 341.203 77.9447 340.08 80.0866 342.636C80.8746 343.58 83.0297 344.17 84.2443 343.821C90.7834 341.942 92.9732 333.993 88.4978 328.863C85.6897 325.642 82.024 324.301 77.7967 324.148C72.9163 323.973 71.6973 322.793 71.6668 318.056C71.5972 307.097 71.5972 296.133 71.6625 285.17C71.6886 280.516 73.9568 278.313 78.6151 278.064C90.4786 277.426 101.72 285.759 104.549 297.977C107.41 310.322 105.869 322.391 99.6299 333.451C96.2471 339.447 92.2723 345.538 85.102 347.544C81.1054 348.658 79.8777 351.101 79.6295 354.575C79.2725 359.613 80.9225 364.044 85.5199 366.338C89.1508 368.152 93.2736 368.991 97.1962 370.205C99.6865 370.974 102.338 371.363 104.68 372.434C107.031 373.509 108.607 372.84 108.981 370.712C109.399 368.357 109.813 365.276 108.681 363.515C106.369 359.919 103.087 356.93 100.061 353.836C99.0639 352.814 97.6185 352.232 95.7639 351.057C109.73 339.101 118.407 325.127 118.054 306.407C117.684 286.909 107.95 274.232 90.5439 266.563C93.6916 263.954 96.4779 261.813 99.0726 259.453C104.615 254.419 108.407 248.28 109.996 240.895C111.903 232.016 107.405 223.634 99.9128 221.952C94.5449 220.746 88.7807 223.98 87.7141 228.795C86.6693 233.514 89.2727 236.525 95.6725 238.015C95.8945 238.068 96.0773 238.277 97.0395 238.924C96.0686 241.323 95.3416 244.102 93.9136 246.449C89.7472 253.301 83.2604 257.714 76.7649 262.053C73.7522 264.068 72.2676 263.43 71.6929 259.886C71.5144 258.776 71.558 257.627 71.558 256.495C71.6102 231.675 71.8018 206.85 71.6233 182.03C71.5885 176.948 73.43 174.081 77.8924 172.15C92.4073 165.87 103.883 155.61 113.953 143.659C119.891 136.61 125.272 129.147 127.406 119.909C130.875 104.89 123.618 91.8593 109.852 89.5827C105.677 88.8923 100.479 89.5302 96.861 91.5622C91.8544 94.3763 87.9013 99.0782 83.4998 102.976C83.6609 103.264 83.822 103.557 83.9875 103.846C84.5839 103.889 85.1803 103.977 85.7768 103.977C94.5623 103.994 103.352 103.964 112.138 104.029C116.979 104.064 118.167 105.109 117.884 109.74C117.719 112.445 117.201 115.329 116.043 117.746C107.936 134.622 94.7713 146.87 79.3552 156.807C74.279 160.08 71.78 158.267 71.7539 152.21C71.7365 147.928 71.8845 143.637 71.6668 139.363C71.4796 135.631 68.9545 133.136 65.8504 133.093C62.8508 133.049 60.3388 135.308 59.8207 138.743C59.5421 140.604 59.4637 142.509 59.4594 144.393C59.4072 164.677 59.3462 184.966 59.3984 205.251C59.4115 209.651 59.9339 214.043 60.1124 218.447C60.2779 222.59 60.4651 226.741 60.3301 230.884C60.1124 237.552 59.3723 244.207 59.3288 250.871C59.1764 273.926 59.1808 296.985 59.2417 320.045C59.2591 326.709 59.1851 333.434 59.9905 340.023C61.5665 352.892 64.971 365.495 72.6246 376.013C83.896 391.512 98.228 401.331 118.781 395.581C119.604 395.349 120.566 395.633 121.837 395.699C121.193 397.377 120.697 398.513 120.314 399.684C118.611 404.932 120.335 408.563 125.612 410.32C127.475 410.94 129.656 411.508 131.498 411.133C136.862 410.036 142.299 408.9 147.397 406.951C157.702 403.014 167.833 402.83 177.676 407.742L177.681 407.759Z" fill="white"/>
<path d="M400.595 191.442C400.891 191.39 401.187 191.333 401.483 191.28C401.626 190.1 401.835 188.929 401.909 187.745C402.758 174.155 400.159 161.208 394.861 148.719C380.638 115.194 357.141 89.8098 326.488 70.9542C271.711 37.2632 212.825 30.9358 151.465 46.9029C115.857 56.1712 84.6771 74.249 59.0868 101.219C42.7565 118.432 30.4315 138.131 23.5529 161.015C20.6099 170.812 19.8567 180.802 21.7723 191.704C22.7257 190.035 23.3309 189.1 23.8185 188.108C29.5957 176.371 35.3076 164.603 41.1326 152.887C47.6369 139.804 54.4328 126.879 63.7756 115.539C77.2586 99.1698 94.1766 86.9781 112.37 76.6218C136.472 62.9007 162.519 55.2055 190.134 52.4657C225.698 48.9349 260.061 53.2391 292.748 67.9871C320.567 80.5415 345.335 97.3476 363.82 122.365C375.274 137.869 382.889 155.448 391.295 172.613C394.378 178.901 397.499 185.171 400.608 191.446L400.595 191.442Z" fill="white"/>
<path d="M229.258 77.1548C245.449 77.1329 261.64 77.1242 277.835 77.0761C280.291 77.0674 283.269 76.7833 283.382 73.8905C283.447 72.1994 281.593 69.4771 279.977 68.8609C275.236 67.0518 270.221 65.1379 265.24 64.9281C250.952 64.3251 236.633 64.4606 222.327 64.4737C212.297 64.4824 208.348 68.6556 208.335 78.8677C208.317 96.2551 208.331 113.638 208.331 131.025C208.331 148.915 208.291 151.681 208.344 169.571C208.374 180.421 213.207 185.294 223.934 185.324C242.763 185.377 261.588 185.425 280.417 185.272C282.772 185.254 285.593 184.573 287.326 183.139C288.715 181.99 289.651 179.001 289.19 177.249C288.737 175.514 286.425 174.076 284.653 172.953C283.73 172.368 282.206 172.674 280.957 172.674C263.634 172.674 246.315 172.691 228.993 172.687C223.268 172.687 221.248 170.742 221.221 165.044C221.182 156.602 221.226 163.283 221.261 154.845C221.282 149.453 221.274 133.791 221.256 126.747C221.248 124.479 221.226 122.212 221.235 119.944C221.261 114.066 222.78 112.506 228.527 112.498C246.098 112.48 241.074 112.506 258.645 112.414C266.211 112.414 268.114 109.696 268.114 105.41C268.114 101.835 264.77 98.7546 258.627 98.7546C240.678 98.7021 245.327 98.7502 227.382 98.724C222.667 98.7196 221.352 97.3562 221.278 92.65C221.239 90.1286 221.269 87.6116 221.278 85.0903C221.287 78.5487 222.68 77.1635 229.258 77.1504V77.1548Z" fill="white"/>
<path d="M135.765 169.921C135.865 185.023 144.141 196.122 157.842 200.094C180.08 206.54 199.697 190.538 198.587 169.571C197.93 157.139 198.465 144.646 198.47 132.184C198.47 118.965 198.552 105.742 198.452 92.5236C198.317 75.0401 184.512 62.0007 166.366 62.0619C149.579 62.1187 135.961 75.6169 135.769 92.4886C135.691 99.288 135.835 106.087 135.83 112.887C135.809 131.9 135.639 150.913 135.765 169.925V169.921ZM149.122 93.0567C149.178 83.0805 157.389 75.5863 167.581 75.6213C177.398 75.6562 185.609 83.7272 185.674 93.5985C185.757 106.572 185.696 119.542 185.696 132.516C185.687 145.109 185.753 157.708 185.666 170.301C185.587 181.186 178.047 188.96 167.729 189.013C157.05 189.065 149.17 181.492 149.109 170.511C148.965 144.694 148.974 118.873 149.126 93.0567H149.122Z" fill="white"/>
<path d="M154.879 367.522C141.391 366.544 128.318 368.462 116.519 375.69C114.43 376.97 111.626 378.329 112.379 381.68C113.158 385.15 116.058 386.448 119.062 386.915C121.065 387.226 123.311 386.789 125.292 386.168C127.786 385.386 130.137 384.128 132.514 382.991C140.39 379.22 148.592 378.272 157.064 380.278C170.081 383.358 180.264 390.923 188.275 401.349C192.986 407.48 196.921 414.209 201.392 420.947C201.841 420.344 202.49 419.706 202.868 418.937C212.289 399.763 209.764 389.913 194.496 380.662C182.285 373.26 169.119 368.558 154.883 367.522H154.879Z" fill="white"/>
<path d="M368.648 308.014C369.14 308.141 369.636 308.268 370.128 308.395C372.605 304.226 375.3 300.171 377.525 295.866C390.124 271.474 389.358 247.305 375.888 223.503C374.512 221.069 372.732 217.814 369.384 218.919C365.666 220.147 367.364 223.826 367.533 226.514C368.125 235.904 369.414 245.282 369.479 254.673C369.588 270.635 368.961 286.607 368.657 302.57C368.622 304.383 368.652 306.197 368.652 308.01L368.648 308.014Z" fill="white"/>
<path d="M53.0762 203.109C54.478 199.775 54.6173 195.908 51.4828 193.36C48.4266 190.874 45.0177 192.456 41.9397 193.919C35.7489 196.865 31.1995 201.645 27.5381 207.343C21.0513 217.446 20.6725 228.703 21.7609 240.104C22.5924 248.839 25.4484 256.962 31.1037 265.217C31.256 263.311 31.3518 262.595 31.3649 261.883C31.6087 245.046 36.5326 229.813 46.3238 216.052C49.1231 212.12 51.1954 207.588 53.0762 203.105V203.109Z" fill="white"/>
<path d="M220.621 438.19C221.666 428.131 216.019 420.751 211.618 412.374C207.713 420.589 201.03 427.384 202.754 437.277C202.858 437.867 202.58 438.518 202.519 439.143C201.665 448.271 200.581 457.382 200.063 466.528C199.767 471.772 203.472 474.617 209.598 474.779C218.544 475.015 223.142 472.616 223.198 467.031C223.259 461.276 222.676 455.499 222.149 449.753C221.792 445.877 220.234 441.948 220.621 438.19Z" fill="white"/>
<path d="M55.3791 222.459C55.3617 221.296 54.5824 219.435 53.7421 219.168C52.5884 218.797 50.6075 219.203 49.7717 220.055C48.1391 221.725 46.8373 223.822 45.7794 225.937C32.636 252.169 33.8637 277.819 49.0751 302.828C50.2027 304.685 51.6219 306.363 52.9019 308.128C53.1283 308.015 53.3503 307.905 53.5767 307.792C53.5767 303.339 53.6072 298.882 53.5723 294.429C53.3938 272.93 51.7874 251.404 54.6781 229.953C55.0134 227.467 55.4182 224.954 55.3791 222.463V222.459Z" fill="white"/>
<path d="M392.328 263.552C392.432 263.46 392.759 263.277 392.942 262.997C393.564 262.053 394.156 261.092 394.722 260.118C401.079 249.189 402.032 237.32 400.722 225.081C399.89 217.311 397.509 210.057 392.62 203.892C388.266 198.403 383.199 193.732 375.954 192.434C372.032 191.735 369.716 193.208 369.376 197.123C369.145 199.78 369.402 202.734 370.377 205.181C371.805 208.755 373.825 212.164 376.028 215.34C382.014 223.979 387.139 233.051 389.359 243.399C390.769 249.971 391.348 256.722 392.324 263.548L392.328 263.552Z" fill="white"/>
<path d="M178.87 415.297C169.462 410.499 155.683 412.138 149.305 418.915C153.815 429.106 162.217 433.773 172.744 435.35C179.997 436.438 187.529 436.713 192.871 443.124C190.05 436.552 184.721 432.435 179.366 428.433C173.92 424.364 168.256 420.589 161.826 416.079C170.459 416.263 176.436 420.231 181.904 424.753C187.394 429.294 192.327 434.52 197.285 439.235C198.435 432.514 189.688 420.816 178.865 415.297H178.87Z" fill="white"/>
<path d="M272.046 417.338C263.156 412.977 254.052 409.988 244.405 415.175C237.283 419.003 231.575 424.504 227.261 431.242C225.78 433.554 225.789 436.822 225.114 439.654L226.198 439.864C236.024 425.684 252.102 414.567 259.416 416.949C248.859 424.674 237.217 431.102 229.977 442.678C235.297 437.006 242.233 436.215 249.281 435.311C259.05 434.052 267.239 429.809 272.342 420.93C272.856 420.034 272.625 417.626 272.046 417.342V417.338Z" fill="white"/>
<path d="M342.3 233.816C342.196 230.504 339.418 227.812 336.214 227.912C336.101 227.912 335.988 227.93 335.875 227.943C335.783 227.921 335.687 227.912 335.592 227.912C335.4 227.912 335.208 227.969 335.026 228.074C331.974 228.773 329.418 231.683 329.449 234.729C329.462 236.066 328.608 260.45 328.456 288.071C324.211 284.628 307.833 278.051 298.934 285.406V256.867C298.934 253.27 296.031 250.36 292.452 250.36C288.873 250.36 285.969 253.27 285.969 256.862C285.969 286.026 285.961 321.683 285.965 349.785C285.965 350.952 285.952 352.163 286.322 353.273C287.136 355.711 289.317 357.227 292.543 357.205C295.639 357.183 297.659 355.619 298.373 353.312C298.778 352.005 298.752 350.598 298.752 349.235C298.76 332.892 298.778 316.545 298.691 300.202C298.678 297.488 299.844 295.788 302.948 294.228C314.969 288.172 328.439 300.154 328.439 311.585C328.439 311.646 328.447 311.698 328.447 311.76C328.365 338.433 328.874 361.505 328.922 362.969C329.031 366.281 331.804 368.973 335.008 368.873C335.121 368.873 335.235 368.855 335.348 368.842C335.439 368.864 335.535 368.873 335.631 368.873C335.822 368.873 336.014 368.816 336.197 368.711C339.249 368.012 341.804 365.101 341.774 362.056C341.756 360.435 343.014 324.913 342.749 290.833C342.936 261.787 342.353 235.385 342.3 233.816Z" fill="white"/>
<path d="M78.6166 121.451C78.6993 118.585 76.1177 116.02 73.1224 115.989C70.1837 115.958 67.367 118.414 67.2015 121.154C67.023 124.06 69.7963 126.778 72.957 126.795C75.9392 126.813 78.5339 124.361 78.6166 121.451Z" fill="white"/>
<path d="M355.464 122.011C340.283 121.377 332.813 152.416 330.771 156.37C329.356 150.458 329.473 109.426 309.425 89.054C307.157 86.7511 305.703 83.7185 301.915 84.706C297.98 85.7329 296.883 88.9447 296.578 92.5716C296.539 93.0567 296.526 93.5461 296.526 94.0355C296.521 130.86 296.526 152.556 296.521 189.38C296.521 192.972 299.425 195.886 303.004 195.886C306.582 195.886 309.486 192.972 309.486 189.38V118.62C310.588 119.35 311.171 120.237 311.554 121.211C322.181 148.308 320.344 189.397 329.713 189.013C333.814 188.842 336.661 178.398 339.173 165.827C339.852 162.418 347.519 139.835 350.662 137.838C350.662 139.726 350.558 146.281 350.558 148.181C350.567 194.54 350.641 226.702 350.553 273.065C350.506 297.374 350.432 321.692 349.848 345.992C349.574 357.367 345.482 367.671 337.628 376.157C330.083 384.307 322.216 384.98 313.235 378.691C310.07 376.476 306.669 374.492 303.143 372.923C287.988 366.19 272.233 365.704 256.316 369.34C243.094 372.355 230.547 377.11 220.534 386.762C218.353 388.864 216.011 391.7 215.527 394.51C213.89 404.019 215.771 412.972 222.153 421.227C223.516 418.627 224.626 416.516 225.732 414.401C233.895 398.736 245.415 386.928 262.646 381.405C275.846 377.175 287.888 379.369 298.998 387.361C299.934 388.034 300.278 389.542 300.897 390.665C299.647 390.752 298.271 391.215 297.174 390.844C295.298 390.215 293.565 389.113 291.819 388.121C286.451 385.067 280.748 383.533 274.531 383.848C255.68 384.792 239.154 398.417 231.348 414.908C231.056 415.529 231.065 416.298 230.769 417.906C232.45 416.494 233.473 415.647 234.483 414.781C246.777 404.228 260.339 400.868 275.689 407.362C277.884 408.288 280.104 409.38 282.416 409.743C286.83 410.434 291.384 411.329 295.759 410.91C302.507 410.259 305.189 404.478 302.233 398.399C301.78 397.473 301.315 396.555 301.097 396.114C307.096 396.472 313.2 397.857 318.96 396.988C333.971 394.724 344.872 385.862 352.042 372.692C359.252 359.451 362.743 345.162 362.918 329.964C363.375 289.439 362.073 248.918 362.735 208.388C363.1 185.967 363.135 167.719 363.283 145.297C363.323 139.228 363.81 122.365 355.469 122.015L355.464 122.011Z" fill="white"/>
<path d="M291.786 206.155C270.898 196.747 241.097 204.98 241.097 204.98C221.711 211.394 246.5 227.799 249.548 218.622C250.649 215.305 256.239 213.304 262.83 212.295V353.53C262.83 357.288 265.865 360.334 269.609 360.334C273.353 360.334 276.387 357.288 276.387 353.53V211.508C283.362 211.709 288.721 212.85 287.855 214.51C285.678 218.701 297.433 226.051 304.69 226.051C311.948 226.051 312.67 215.563 291.782 206.155H291.786Z" fill="white"/>
<path d="M126.303 239.138V334.303C126.303 349.117 138.31 361.173 153.073 361.173C167.836 361.173 179.843 349.121 179.843 334.303V239.138C179.843 224.325 167.836 212.268 153.073 212.268C138.31 212.268 126.303 224.32 126.303 239.138ZM139.111 239.138C139.111 231.412 145.376 225.124 153.073 225.124C160.77 225.124 167.035 231.412 167.035 239.138V334.303C167.035 342.029 160.77 348.317 153.073 348.317C145.376 348.317 139.111 342.029 139.111 334.303V239.138Z" fill="white"/>
<path d="M193.64 263.919V334.307C193.64 349.121 205.647 361.177 220.41 361.177C235.173 361.177 247.18 349.125 247.18 334.307V263.919C247.18 249.105 235.173 237.049 220.41 237.049C205.647 237.049 193.64 249.101 193.64 263.919ZM206.448 263.919C206.448 256.193 212.713 249.905 220.41 249.905C228.107 249.905 234.372 256.193 234.372 263.919V334.307C234.372 342.033 228.107 348.321 220.41 348.321C212.713 348.321 206.448 342.033 206.448 334.307V263.919Z" fill="white"/>
</svg>
